<svg width="428" height="160" xmlns="http://www.w3.org/2000/svg" xmlns:xlink="http://www.w3.org/1999/xlink" overflow="hidden"><defs><clipPath id="clip0"><rect x="183" y="254" width="428" height="160"/></clipPath><clipPath id="clip1"><rect x="184" y="255" width="159" height="159"/></clipPath><clipPath id="clip2"><rect x="184" y="255" width="159" height="159"/></clipPath><clipPath id="clip3"><rect x="184" y="255" width="159" height="159"/></clipPath></defs><g clip-path="url(#clip0)" transform="translate(-183 -254)"><g clip-path="url(#clip1)"><g clip-path="url(#clip2)"><g clip-path="url(#clip3)"><path d="M300.363 324.15C298.112 306.561 282.202 294.149 264.817 296.424 247.436 298.7 235.168 314.804 237.419 332.393 239.67 349.983 255.58 362.395 272.965 360.119 290.346 357.843 302.614 341.739 300.363 324.15ZM270.794 343.146C262.675 344.209 255.242 338.41 254.194 330.197 253.145 321.984 258.874 314.461 266.993 313.398 275.112 312.334 282.545 318.133 283.594 326.346 284.642 334.56 278.913 342.082 270.794 343.146Z" fill="#9F9F9F" fill-rule="evenodd"/><path d="M266.839 379.095C247.272 379.095 227.819 371.438 214.95 365.018 207.159 361.133 201.222 357.446 197.614 355.036 192.71 351.756 190.882 350.301 190.102 349.044 188.477 346.43 188.859 344.666 189.679 342.077 190.981 337.978 194.941 330.262 200.576 323.017 209.828 311.112 229.822 290.944 259.783 289.632 261.284 289.568 262.78 289.533 264.235 289.533 283.365 289.533 298.858 295.197 311.598 306.844 322.385 316.707 329.743 329.268 337.569 343.469 338.155 344.517 338.573 347.056 336.406 349.868 321.232 369.535 298.48 379.095 266.839 379.095ZM199.443 345.312C210.533 351.389 239.993 367.532 272.17 367.532 292.478 367.532 313.585 359.572 328.864 346.186 325.053 342.803 321.47 338.654 317.997 334.629 306.579 321.407 293.64 306.427 267.013 306.427 265.676 306.427 264.295 306.466 262.914 306.541 232.271 308.21 210.459 332.339 201.147 342.639 200.302 343.573 199.582 344.373 198.956 345.044 199.11 345.133 199.274 345.223 199.443 345.312Z" fill="#9F9F9F" fill-rule="evenodd"/><path d="M266.988 313.398C275.107 312.334 282.54 318.133 283.589 326.346 284.637 334.56 278.908 342.082 270.789 343.146 262.67 344.209 255.237 338.41 254.189 330.197 253.14 321.984 258.869 314.461 266.988 313.398Z" fill="#9F9F9F" fill-rule="evenodd"/></g></g></g><text fill="#9F9F9F" font-family="Open Sans SemiBold,Open Sans SemiBold_MSFontService,sans-serif" font-weight="600" font-size="43" transform="translate(334.171 329)">Vtl Software</text><text fill="#9F9F9F" font-family="Open Sans SemiBold,Open Sans SemiBold_MSFontService,sans-serif" font-weight="600" font-size="21" transform="translate(346.492 351)">Your dreams, our goals</text></g></svg>